# xmcd
#
# Track frame offsets: 
#        150
#        14368
#        17403
#        29026
#        30648
#        43944
#        47371
#        52857
#        62574
#        67035
#        70415
#        84198
#        90250
#        104433
#        107844
#        123405
#        137120
#        142449
#        155212
#
# Disc length: 2224 seconds
#
# Revision: 0
# Processed by: cddbd v1.5.2PL0 Copyright (c) Steve Scherf et al.
# Submitted via: ExactAudioCopy v1.1
#
DISCID=0a08ae13
DTITLE=Johnny Cash - Strawberry Cake
DYEAR=1976
DGENRE=Country
TTITLE0=Big River
TTITLE1=Dialogue #1
TTITLE2=Doin' My Time
TTITLE3=Dialogue #2
TTITLE4=I Still Miss Someone
TTITLE5=Dialogue #3
TTITLE6=Another Man Done Gone
TTITLE7=I Got Stripes
TTITLE8=Dialogue #4 June Intro
TTITLE9=Church In The Wildwood
TTITLE10=Wildwood - Lonesome Valley
TTITLE11=Dialogue #5
TTITLE12=Strawberry Cake
TTITLE13=Dialogue #6
TTITLE14=Rock Island Line
TTITLE15=Navajo
TTITLE16=Dialogue #7
TTITLE17=Destination Victoria Station
TTITLE18=The Fourth Man
EXTD=
EXTT0=
EXTT1=
EXTT2=
EXTT3=
EXTT4=
EXTT5=
EXTT6=
EXTT7=
EXTT8=
EXTT9=
EXTT10=
EXTT11=
EXTT12=
EXTT13=
EXTT14=
EXTT15=
EXTT16=
EXTT17=
EXTT18=
PLAYORDER=
